<?xml version="1.0" encoding="UTF-8" standalone="no"?>
<!DOCTYPE svg PUBLIC "-//W3C//DTD SVG 1.1//EN" "http://www.w3.org/Graphics/SVG/1.1/DTD/svg11.dtd">
<svg width="100%" height="100%" viewBox="0 0 48 48" version="1.1" xmlns="http://www.w3.org/2000/svg" xmlns:xlink="http://www.w3.org/1999/xlink" xml:space="preserve" xmlns:serif="http://www.serif.com/" style="fill-rule:evenodd;clip-rule:evenodd;stroke-linejoin:round;stroke-miterlimit:2;">
    <path d="M20.85,26.35L19.05,24.55C19.317,24.183 19.525,23.796 19.675,23.388C19.825,22.98 19.9,22.564 19.9,22.138C19.9,21.713 19.825,21.292 19.675,20.875C19.525,20.458 19.317,20.083 19.05,19.75L20.85,17.95C21.417,18.55 21.833,19.208 22.1,19.925C22.367,20.642 22.5,21.383 22.5,22.15C22.5,22.917 22.367,23.658 22.1,24.375C21.833,25.092 21.417,25.75 20.85,26.35ZM24.45,29.95L22.65,28.15C23.45,27.183 24.042,26.199 24.425,25.197C24.808,24.195 25,23.179 25,22.147C25,21.116 24.808,20.092 24.425,19.075C24.042,18.058 23.45,17.083 22.65,16.15L24.45,14.35C25.517,15.55 26.3,16.804 26.8,18.113C27.3,19.422 27.55,20.768 27.55,22.15C27.55,23.522 27.3,24.865 26.8,26.179C26.3,27.493 25.517,28.75 24.45,29.95ZM9.498,23.75C8.466,23.75 7.583,23.383 6.85,22.648C6.117,21.913 5.75,21.03 5.75,19.998C5.75,18.966 6.117,18.083 6.852,17.35C7.587,16.617 8.47,16.25 9.502,16.25C10.534,16.25 11.417,16.617 12.15,17.352C12.883,18.087 13.25,18.97 13.25,20.002C13.25,21.034 12.883,21.917 12.148,22.65C11.413,23.383 10.53,23.75 9.498,23.75ZM2,31.5L2,30.85C2,30.147 2.19,29.503 2.57,28.918C2.951,28.332 3.477,27.893 4.15,27.6C4.986,27.249 5.846,26.978 6.73,26.787C7.614,26.596 8.539,26.5 9.503,26.5C10.468,26.5 11.391,26.596 12.274,26.787C13.157,26.978 14.015,27.249 14.85,27.6C15.523,27.893 16.049,28.332 16.43,28.918C16.81,29.503 17,30.147 17,30.85L17,31.5L2,31.5ZM38.498,23.75C37.466,23.75 36.583,23.383 35.85,22.648C35.117,21.913 34.75,21.03 34.75,19.998C34.75,18.966 35.117,18.083 35.852,17.35C36.587,16.617 37.47,16.25 38.502,16.25C39.534,16.25 40.417,16.617 41.15,17.352C41.883,18.087 42.25,18.97 42.25,20.002C42.25,21.034 41.883,21.917 41.148,22.65C40.413,23.383 39.53,23.75 38.498,23.75ZM31,31.5L31,30.85C31,30.147 31.19,29.503 31.57,28.918C31.951,28.332 32.477,27.893 33.15,27.6C33.986,27.249 34.846,26.978 35.73,26.787C36.614,26.596 37.539,26.5 38.503,26.5C39.468,26.5 40.391,26.596 41.274,26.787C42.157,26.978 43.015,27.249 43.85,27.6C44.523,27.893 45.049,28.332 45.43,28.918C45.81,29.503 46,30.147 46,30.85L46,31.5L31,31.5Z" style="fill:white;fill-rule:nonzero;stroke:white;stroke-width:1px;"/>
</svg>
